<svg width="19" height="18" viewBox="0 0 19 18" fill="none" xmlns="http://www.w3.org/2000/svg">
<path d="M12.0469 13.2182C11.9917 14.6072 10.8342 15.7866 9.28361 15.7486C8.92286 15.7398 8.47697 15.614 7.58522 15.3625C5.43909 14.7571 3.57604 13.7398 3.12904 11.4607C3.04687 11.0417 3.04687 10.5703 3.04688 9.62745L3.04688 8.37157C3.04688 7.42872 3.04688 6.9573 3.12904 6.53835C3.57604 4.25925 5.43909 3.24188 7.58522 2.63653C8.47698 2.385 8.92286 2.25923 9.28361 2.2504C10.8342 2.21247 11.9917 3.39181 12.0469 4.78077" stroke="#101828" stroke-width="1.125" stroke-linecap="round"/>
<path d="M16.5469 8.99951H8.29688M16.5469 8.99951C16.5469 8.47434 15.0511 7.49316 14.6719 7.12451M16.5469 8.99951C16.5469 9.52468 15.0511 10.5059 14.6719 10.8745" stroke="#101828" stroke-width="1.125" stroke-linecap="round" stroke-linejoin="round"/>
</svg>
